<?xml version="1.0" standalone="no"?>
<!DOCTYPE svg PUBLIC "-//W3C//DTD SVG 20010904//EN"
 "http://www.w3.org/TR/2001/REC-SVG-20010904/DTD/svg10.dtd">
<svg version="1.0" xmlns="http://www.w3.org/2000/svg"
 width="560.000000pt" height="345.000000pt" viewBox="0 0 560.000000 345.000000"
 preserveAspectRatio="xMidYMid meet">

<g transform="translate(0.000000,345.000000) scale(0.100000,-0.100000)"
fill="#000000" stroke="none">
<path d="M4026 2744 c-8 -8 -13 -21 -9 -30 8 -22 47 -13 51 12 4 27 -22 38
-42 18z"/>
<path d="M2276 2045 c5 -13 100 -15 769 -15 666 0 764 2 775 15 11 13 -75 15
-768 15 -690 0 -781 -2 -776 -15z"/>
<path d="M3894 2008 c-19 -37 -1 -72 29 -56 13 7 22 7 30 -1 6 -6 23 -11 38
-11 23 0 28 -5 31 -27 4 -36 26 -41 38 -8 13 35 2 95 -19 102 -9 4 -22 11 -30
17 -8 6 -34 11 -59 11 -38 0 -46 -4 -58 -27z"/>
<path d="M2313 1997 c3 -9 101 -13 378 -15 316 -2 378 0 394 12 18 13 -26 15
-378 15 -302 0 -397 -3 -394 -12z"/>
<path d="M3150 1999 c0 -5 5 -7 10 -4 6 3 10 8 10 11 0 2 -4 4 -10 4 -5 0 -10
-5 -10 -11z"/>
<path d="M3200 1999 c0 -17 47 -20 315 -17 176 2 268 6 265 13 -6 13 -580 17
-580 4z"/>
<path d="M2368 1948 c10 -10 96 -14 347 -16 296 -2 335 -1 335 13 0 13 -41 15
-347 15 -278 0 -345 -3 -335 -12z"/>
<path d="M3216 1953 c-20 -20 18 -24 249 -21 189 2 257 6 267 16 10 10 -37 12
-249 12 -143 -1 -264 -4 -267 -7z"/>
<path d="M3060 1726 c-3 -2 -3 -34 -2 -70 l4 -66 92 0 93 0 -9 57 c-5 32 -11
60 -14 63 -3 3 -31 5 -62 6 -31 0 -66 4 -77 8 -11 4 -23 5 -25 2z"/>
<path d="M2974 1701 c-42 -19 -61 -50 -105 -178 l-17 -51 34 -17 c48 -23 87
-17 94 15 5 20 9 13 22 -40 14 -60 16 -63 25 -40 15 37 15 330 0 330 -7 0 -30
-9 -53 -19z"/>
<path d="M3250 1693 c2 -32 38 -242 39 -223 1 20 9 29 35 38 59 22 61 32 22
110 -24 48 -42 71 -58 76 -30 8 -38 8 -38 -1z"/>
<path d="M2686 1594 c-8 -21 11 -44 35 -44 19 0 35 33 24 50 -10 16 -52 12
-59 -6z"/>
<path d="M3940 1596 c0 -3 9 -10 20 -16 11 -6 20 -8 20 -6 0 3 -9 10 -20 16
-11 6 -20 8 -20 6z"/>
<path d="M4455 1574 c-9 -9 -14 -21 -12 -27 6 -18 33 -31 51 -24 21 8 21 53 0
61 -21 8 -20 8 -39 -10z"/>
<path d="M1498 1519 c-50 -8 -68 -15 -68 -28 0 -4 30 -1 68 7 43 9 96 12 147
8 51 -3 72 -2 58 4 -30 12 -149 18 -205 9z"/>
<path d="M1491 1465 c-73 -16 -66 -12 -74 -46 l-7 -26 54 16 c30 8 53 18 50
22 -2 3 7 5 19 3 85 -12 147 -11 147 1 0 8 -6 15 -12 18 -7 2 -5 3 4 2 10 -2
20 0 23 5 5 9 -55 20 -105 19 -19 0 -64 -7 -99 -14z m62 -12 c-7 -2 -19 -2
-25 0 -7 3 -2 5 12 5 14 0 19 -2 13 -5z m57 -3 c0 -5 -10 -10 -22 -9 -22 0
-22 1 -3 9 11 5 21 9 23 9 1 1 2 -3 2 -9z m-117 -7 c-7 -2 -19 -2 -25 0 -7 3
-2 5 12 5 14 0 19 -2 13 -5z m-23 -17 c0 -2 -9 -6 -20 -9 -11 -3 -20 -1 -20 4
0 5 9 9 20 9 11 0 20 -2 20 -4z"/>
<path d="M1870 1435 c7 -9 15 -13 17 -11 7 7 -7 26 -19 26 -6 0 -6 -6 2 -15z"/>
<path d="M2187 1440 c-9 -6 -24 -24 -32 -39 -16 -31 -16 -31 68 -44 10 -2 22
-8 25 -13 11 -14 564 -6 559 9 -3 10 -157 16 -509 17 -5 0 -8 9 -8 20 0 19 7
20 261 20 204 0 260 3 257 13 -4 9 -69 13 -274 14 -148 1 -282 5 -299 8 -16 3
-38 0 -48 -5z"/>
<path d="M4138 1432 c13 -4 23 -10 23 -14 -1 -5 -1 -12 -1 -17 0 -5 -10 -11
-22 -13 -18 -2 -24 -11 -26 -35 -3 -32 -2 -33 30 -32 30 2 31 2 6 6 -35 5 -39
40 -7 45 50 7 51 69 2 67 -26 -1 -26 -1 -5 -7z"/>
<path d="M4199 1433 c-7 -43 3 -63 32 -63 32 0 24 -38 -8 -43 -26 -4 -25 -4 5
-6 53 -2 57 59 3 67 -32 5 -28 40 7 45 25 4 25 4 -5 6 -18 0 -34 -2 -34 -6z"/>
<path d="M4400 1425 c0 -8 2 -15 4 -15 2 0 6 7 10 15 3 8 1 15 -4 15 -6 0 -10
-7 -10 -15z"/>
<path d="M4435 1420 c-3 -5 -1 -10 4 -10 6 0 11 5 11 10 0 6 -2 10 -4 10 -3 0
-8 -4 -11 -10z"/>
<path d="M1801 1403 l-24 -16 28 -15 c26 -13 30 -13 42 3 9 14 10 22 2 32 -15
17 -20 16 -48 -4z m33 -19 c4 -10 1 -14 -6 -12 -15 5 -23 28 -10 28 5 0 13 -7
16 -16z"/>
<path d="M4365 1410 c3 -5 11 -10 16 -10 6 0 7 5 4 10 -3 6 -11 10 -16 10 -6
0 -7 -4 -4 -10z"/>
<path d="M1530 1393 c-14 -2 -46 -11 -71 -19 l-46 -15 9 -42 c5 -23 9 -50 9
-59 0 -22 -4 -22 50 4 24 12 68 23 97 26 l54 5 -6 30 c-3 17 -3 28 1 24 3 -4
11 3 18 16 9 18 8 23 -4 29 -17 7 -71 8 -111 1z m45 -13 c-3 -5 -14 -10 -24
-10 -9 0 -23 -6 -30 -12 -11 -11 -12 -10 -7 0 6 10 1 11 -21 6 -15 -4 -25 -4
-22 0 3 4 23 9 44 11 21 3 41 8 44 10 9 9 22 5 16 -5z m40 -20 c-3 -5 -12 -10
-18 -10 -7 0 -6 4 3 10 19 12 23 12 15 0z m-165 -11 c-12 -9 -11 -10 8 -6 12
3 20 1 16 -4 -3 -5 -13 -9 -22 -9 -15 0 -15 -2 -2 -11 13 -9 13 -10 0 -6 -24
6 -21 47 3 47 7 0 6 -4 -3 -11z m100 -39 c0 -5 -5 -10 -11 -10 -5 0 -7 5 -4
10 3 6 8 10 11 10 2 0 4 -4 4 -10z m47 -6 c-3 -3 -12 -4 -19 -1 -8 3 -5 6 6 6
11 1 17 -2 13 -5z m-134 -18 c17 -13 17 -14 0 -20 -10 -4 -14 -4 -10 0 4 4 -1
13 -11 20 -9 7 -12 13 -7 13 6 0 18 -6 28 -13z m32 4 c3 -6 -1 -7 -9 -4 -18 7
-21 14 -7 14 6 0 13 -4 16 -10z"/>
<path d="M1930 1392 c0 -4 18 -26 41 -47 22 -22 50 -57 61 -77 12 -21 26 -38
31 -38 12 0 -22 54 -75 117 -41 49 -58 63 -58 45z"/>
<path d="M4400 1386 c0 -9 5 -16 10 -16 6 0 10 4 10 9 0 6 -4 13 -10 16 -5 3
-10 -1 -10 -9z"/>
<path d="M4358 1383 c7 -3 16 -2 19 1 4 3 -2 6 -13 5 -11 0 -14 -3 -6 -6z"/>
<path d="M4438 1383 c7 -3 16 -2 19 1 4 3 -2 6 -13 5 -11 0 -14 -3 -6 -6z"/>
<path d="M1195 1338 c-17 -17 -29 -35 -27 -40 1 -4 -3 -8 -9 -8 -5 0 -8 -4 -5
-9 4 -5 3 -11 -2 -13 -13 -6 -62 -109 -61 -131 0 -21 1 -20 11 3 37 87 64 136
99 180 44 56 40 67 -6 18z"/>
<path d="M4373 1363 c-15 -5 -17 -23 -4 -23 5 0 11 7 15 15 3 8 4 15 3 14 -1
0 -8 -3 -14 -6z"/>
<path d="M4430 1361 c0 -5 5 -13 10 -16 6 -3 10 -2 10 4 0 5 -4 13 -10 16 -5
3 -10 2 -10 -4z"/>
<path d="M1731 1340 c-13 -11 -20 -20 -16 -20 5 0 0 -9 -10 -20 -17 -19 -17
-20 9 -30 15 -5 31 -10 35 -10 10 0 65 70 60 74 -6 5 -47 26 -51 26 -2 -1 -14
-10 -27 -20z m53 -22 c-13 -23 -37 -48 -46 -48 -5 0 3 13 19 30 31 32 38 37
27 18z"/>
<path d="M1887 1342 c-15 -16 -14 -20 17 -52 18 -20 38 -45 45 -57 9 -18 16
-21 35 -13 13 5 27 6 30 3 12 -12 6 8 -11 35 -19 31 -84 102 -93 102 -4 0 -14
-8 -23 -18z m113 -103 c0 -5 -8 -9 -17 -7 -21 3 -56 55 -48 69 4 5 -1 12 -9
15 -9 3 -13 10 -10 15 6 10 84 -76 84 -92z"/>
<path d="M1940 1294 c0 -10 37 -54 45 -54 9 0 5 7 -20 36 -14 16 -25 24 -25
18z"/>
<path d="M4400 1345 c0 -8 4 -15 10 -15 5 0 7 7 4 15 -4 8 -8 15 -10 15 -2 0
-4 -7 -4 -15z"/>
<path d="M1219 1289 c-34 -40 -88 -150 -89 -180 0 -9 8 -24 19 -33 18 -16 19
-15 26 20 8 43 46 124 80 169 19 26 21 34 10 48 -11 16 -15 13 -46 -24z m29
-13 c-2 0 -16 -12 -33 -26 -21 -18 -25 -20 -15 -5 27 36 35 43 43 38 5 -3 7
-6 5 -7z m-57 -89 c-6 -8 -9 -17 -6 -21 3 -3 -1 -1 -7 4 -10 9 -10 13 2 20 21
13 24 12 11 -3z m-26 -49 c-4 -37 -4 -38 -15 -38 -7 0 -7 6 -2 18 5 9 7 23 5
30 -3 6 0 12 5 12 5 0 8 -10 7 -22z"/>
<path d="M1817 1256 l-26 -34 20 -18 c17 -16 20 -27 15 -61 -6 -43 8 -60 21
-25 4 9 14 22 22 29 14 11 14 12 -3 13 -15 0 -16 3 -6 15 7 8 20 15 29 15 39
1 41 15 10 58 -17 23 -37 42 -44 42 -7 0 -24 -15 -38 -34z m60 -20 c-6 -18
-39 -32 -44 -18 -3 6 -10 10 -16 6 -7 -3 -4 1 5 9 10 8 14 18 10 22 -4 4 4 2
18 -5 21 -10 23 -10 13 1 -7 7 -13 18 -13 24 0 5 7 1 15 -10 9 -10 14 -24 12
-29z"/>
<path d="M1845 1230 c-3 -5 -1 -10 4 -10 6 0 11 5 11 10 0 6 -2 10 -4 10 -3 0
-8 -4 -11 -10z"/>
<path d="M2270 1275 c0 -13 34 -15 267 -13 202 2 267 6 271 16 3 9 -55 12
-267 12 -236 0 -271 -2 -271 -15z"/>
<path d="M4318 1263 c23 -2 61 -2 85 0 23 2 4 4 -43 4 -47 0 -66 -2 -42 -4z"/>
<path d="M1270 1233 c-11 -15 -18 -33 -16 -40 3 -7 0 -12 -6 -10 -6 1 -19 -23
-29 -53 -18 -55 -25 -109 -12 -97 3 4 11 3 17 -2 6 -4 25 -13 43 -19 l31 -10
12 46 c6 26 22 66 35 88 25 42 23 63 -2 42 -12 -10 -13 -7 -8 15 5 17 3 27 -4
27 -6 0 -11 -4 -11 -10 0 -5 -5 -10 -11 -10 -8 0 -8 4 0 14 12 14 5 46 -9 46
-5 0 -18 -12 -30 -27z m30 1 c0 -8 -5 -12 -10 -9 -6 4 -8 11 -5 16 9 14 15 11
15 -7z m5 -62 c-3 -3 -11 0 -18 7 -9 10 -8 11 6 5 10 -3 15 -9 12 -12z m-47
-27 c-3 -3 -9 2 -12 12 -6 14 -5 15 5 6 7 -7 10 -15 7 -18z m38 3 c10 -12 13
-18 7 -14 -7 4 -13 2 -13 -3 0 -6 -5 -11 -11 -11 -8 0 -8 4 0 13 8 10 7 17 -1
25 -7 7 -10 12 -7 12 3 0 14 -10 25 -22z m-46 -36 c0 -15 -2 -15 -10 -2 -13
20 -13 33 0 25 6 -3 10 -14 10 -23z m61 -15 c-10 -9 -11 -8 -5 6 3 10 9 15 12
12 3 -3 0 -11 -7 -18z m-78 -7 c3 -11 1 -18 -4 -14 -5 3 -9 12 -9 20 0 20 7
17 13 -6z m64 -32 c-3 -8 -6 -5 -6 6 -1 11 2 17 5 13 3 -3 4 -12 1 -19z"/>
<path d="M1570 1250 c11 -8 8 -9 -12 -4 -23 5 -98 -20 -98 -33 0 -2 11 -16 25
-31 14 -15 25 -22 25 -16 0 7 -7 17 -15 24 -19 16 -19 26 1 34 13 5 14 4 6 -7
-14 -17 -6 -27 16 -20 10 3 13 1 7 -4 -35 -29 10 -98 55 -85 23 7 25 12 27 80
l2 72 -27 0 c-21 0 -24 -2 -12 -10z m0 -100 c0 -5 -4 -10 -10 -10 -5 0 -10 5
-10 10 0 6 5 10 10 10 6 0 10 -4 10 -10z m0 -30 c0 -5 -4 -10 -10 -10 -5 0
-10 5 -10 10 0 6 5 10 10 10 6 0 10 -4 10 -10z"/>
<path d="M1663 1230 c3 -11 2 -18 -3 -15 -4 3 -11 -2 -14 -11 -5 -13 -1 -15
21 -10 21 5 24 4 13 -4 -8 -5 -23 -10 -33 -10 -13 0 -18 -6 -16 -22 2 -13 0
-29 -4 -35 -5 -7 -5 -13 0 -12 4 0 29 27 55 58 l47 58 -25 12 c-36 16 -47 14
-41 -9z m47 -10 c0 -5 -5 -10 -11 -10 -5 0 -7 5 -4 10 3 6 8 10 11 10 2 0 4
-4 4 -10z"/>
<path d="M4123 1233 c9 -2 25 -2 35 0 9 3 1 5 -18 5 -19 0 -27 -2 -17 -5z"/>
<path d="M2295 1210 c9 -14 -36 -39 -75 -41 -63 -4 -69 -11 -56 -68 6 -27 14
-53 19 -57 4 -4 7 -18 7 -31 0 -13 6 -26 14 -29 13 -5 132 39 149 55 4 4 2 34
-4 67 -6 32 -12 64 -12 69 -1 6 -6 13 -12 17 -5 4 -1 8 11 8 18 0 23 -10 36
-79 9 -43 23 -94 31 -112 8 -19 21 -51 28 -71 7 -21 17 -38 22 -38 5 0 6 7 3
16 -21 54 -19 61 17 68 55 10 64 29 39 81 l-21 44 138 3 137 3 -4 -23 c-2 -12
-15 -28 -28 -35 -15 -8 -20 -17 -15 -25 6 -10 17 -9 54 5 49 18 57 36 19 41
-40 6 -23 22 24 22 26 0 43 4 39 10 -3 5 -12 7 -20 4 -8 -4 -18 1 -21 10 -5
14 -29 16 -168 16 -156 1 -162 1 -191 25 l-30 25 193 0 c164 0 192 2 192 15 0
13 -36 15 -261 15 -163 0 -258 -4 -254 -10z"/>
<path d="M1735 1153 c-21 -27 -43 -53 -48 -60 -9 -12 25 -68 35 -57 7 6 -9
-94 -17 -106 -9 -14 34 -72 47 -64 7 5 8 2 3 -5 -4 -7 2 -22 16 -37 17 -18 25
-21 36 -13 7 6 13 16 13 21 0 5 7 16 15 24 13 14 10 20 -33 53 -46 38 -64 44
-46 18 5 -7 1 -4 -8 6 -10 11 -18 24 -17 31 0 6 3 6 6 -2 4 -10 8 -8 18 5 13
17 13 17 12 -2 -2 -15 7 -21 41 -29 23 -5 42 -14 42 -20 1 -27 20 23 20 51 0
23 -6 36 -22 44 -18 10 -20 9 -15 -5 4 -9 4 -16 1 -16 -2 0 -9 12 -14 26 -6
14 -19 28 -31 31 -13 4 -18 11 -14 21 5 15 -6 14 -47 -3 -13 -5 -18 -2 -18 9
0 26 30 77 40 71 6 -4 10 -8 10 -11 0 -3 -4 -3 -9 0 -4 3 -13 -6 -19 -19 -14
-31 -4 -32 28 -2 14 13 33 26 43 30 10 4 15 11 12 17 -4 6 -11 7 -17 4 -6 -4
-8 -2 -5 3 4 6 1 16 -7 22 -10 9 -21 1 -51 -36z m15 -168 c0 -5 -5 -3 -10 5
-5 8 -10 20 -10 25 0 6 5 3 10 -5 5 -8 10 -19 10 -25z m80 -25 c8 -5 11 -10 5
-10 -5 0 -17 5 -25 10 -8 5 -10 10 -5 10 6 0 17 -5 25 -10z m-35 -70 c3 -5 1
-10 -4 -10 -6 0 -11 5 -11 10 0 6 2 10 4 10 3 0 8 -4 11 -10z m25 -20 c0 -5
-5 -10 -11 -10 -5 0 -7 5 -4 10 3 6 8 10 11 10 2 0 4 -4 4 -10z"/>
<path d="M1365 1109 c-14 -30 -25 -68 -25 -85 0 -30 2 -32 48 -37 29 -3 53 -1
61 6 12 10 13 6 8 -25 -3 -21 -2 -38 4 -38 5 0 9 8 10 18 0 11 2 13 6 4 3 -8
-3 -21 -14 -31 -16 -15 -21 -16 -31 -4 -8 8 -9 13 -2 13 6 0 8 5 5 10 -3 6 -1
10 6 10 7 0 10 3 6 6 -3 3 -26 -1 -51 -9 -24 -8 -48 -12 -51 -9 -10 9 4 -36
21 -69 22 -44 61 -27 112 50 10 14 15 40 13 67 -1 23 2 51 8 62 13 24 0 41
-51 70 -34 19 -38 19 -50 4 -11 -14 -10 -15 7 -8 15 5 17 4 8 -5 -18 -18 -35
-2 -22 22 6 12 8 23 5 26 -3 3 -17 -18 -31 -48z m126 -36 c13 -15 12 -15 -8
-4 -24 12 -29 21 -14 21 5 0 15 -7 22 -17z m-14 -37 c-6 -8 -15 -12 -19 -9 -4
2 -2 10 5 17 6 8 15 12 19 9 4 -2 2 -10 -5 -17z m-106 -3 c-11 -5 -11 -7 0
-15 12 -8 12 -9 0 -6 -22 6 -25 28 -4 27 12 0 14 -2 4 -6z m52 -156 c-3 -4
-11 -6 -19 -3 -8 3 -14 0 -14 -6 0 -6 -3 -9 -6 -5 -10 10 6 26 26 24 10 -1 16
-5 13 -10z"/>
<path d="M2099 1099 c-16 -23 -24 -28 -30 -17 -5 7 -9 10 -9 6 0 -4 -11 -3
-25 2 l-25 9 1 -74 c1 -67 10 -96 21 -63 3 8 20 3 53 -15 37 -21 50 -25 57
-15 11 18 10 58 -2 58 -5 0 -10 7 -10 15 0 20 16 19 30 -2 10 -16 11 -16 5 2
-9 26 -16 55 -20 80 -2 11 -4 22 -5 25 -1 3 -2 8 -1 13 3 18 -19 4 -40 -24z
m-49 -34 c0 -2 -7 -5 -15 -9 -9 -3 -15 0 -15 9 0 9 6 12 15 9 8 -4 15 -7 15
-9z"/>
<path d="M2910 1109 c0 -5 15 -9 33 -9 46 0 65 -14 47 -34 -12 -15 -14 -15
-31 0 -25 23 -24 9 1 -19 16 -16 19 -29 14 -52 -8 -36 -4 -33 -34 -35 -42 -4
-50 -1 -50 18 1 15 2 15 15 -2 8 -11 15 -16 15 -10 -1 11 -25 44 -34 44 -3 0
-6 -9 -6 -19 0 -32 -19 -34 -27 -2 -7 24 -10 27 -21 15 -7 -8 -8 -14 -2 -14
14 0 13 -27 -2 -32 -29 -10 -57 5 -61 31 -2 14 -5 -13 -6 -61 l-1 -88 100 -1
c55 0 120 -1 145 -1 25 -1 48 1 50 4 8 7 9 187 2 195 -7 6 -11 -26 -8 -59 2
-12 -5 -18 -18 -18 -16 0 -21 6 -21 25 0 31 3 41 12 38 4 -2 4 5 1 14 -5 12
-3 14 8 8 10 -7 9 -2 -3 17 -17 26 -17 27 4 30 12 2 23 9 26 16 3 10 -14 12
-72 11 -42 -1 -76 -6 -76 -10z"/>
<path d="M1880 1106 c0 -22 36 -78 64 -100 35 -26 49 -24 24 3 -10 11 -10 13
0 7 8 -5 12 2 11 26 0 18 -3 40 -7 48 -8 18 -54 20 -60 2 -2 -8 3 -10 15 -6
14 5 15 4 3 -4 -17 -13 -30 -6 -30 14 0 8 -4 14 -10 14 -5 0 -10 -2 -10 -4z
m87 -72 c-3 -3 -12 -4 -19 -1 -8 3 -5 6 6 6 11 1 17 -2 13 -5z"/>
<path d="M1900 942 c0 -6 -3 -17 -6 -26 -4 -10 -1 -16 8 -16 8 0 24 -9 36 -20
30 -29 27 -17 -8 32 -16 22 -30 36 -30 30z"/>
<path d="M1275 922 c-16 -2 -35 -8 -42 -13 -7 -7 -13 -5 -17 3 -3 7 -4 0 0
-17 11 -59 84 -177 84 -136 0 8 6 6 17 -5 16 -15 18 -15 40 12 19 25 20 30 8
44 -8 9 -25 38 -37 65 -21 46 -26 50 -53 47z m29 -28 c3 -8 2 -12 -4 -9 -6 3
-10 10 -10 16 0 14 7 11 14 -7z m-22 -43 c7 11 8 9 4 -5 -4 -11 -1 -23 6 -29
9 -6 8 -7 -4 -3 -21 6 -23 -4 -5 -24 10 -12 9 -12 -6 -1 -11 9 -15 21 -11 34
4 12 2 17 -4 13 -6 -4 -8 2 -4 16 6 21 7 21 10 4 3 -15 6 -16 14 -5z m67 -73
c-14 -26 -20 -22 -14 10 6 26 6 26 -9 8 -14 -17 -16 -18 -16 -3 0 9 4 17 10
17 5 0 7 8 3 18 -4 10 2 8 14 -8 16 -18 19 -30 12 -42z"/>
<path d="M1132 878 c11 -49 62 -149 88 -173 12 -11 26 -14 44 -9 l27 6 -20 22
c-26 28 -91 152 -91 175 0 11 -9 17 -29 19 l-29 2 10 -42z m39 -45 c-12 -20
-14 -14 -5 12 4 9 9 14 11 11 3 -2 0 -13 -6 -23z m25 -40 c-3 -4 -6 -1 -6 6 0
7 -4 9 -10 6 -6 -4 -7 1 -3 11 6 15 7 15 15 -1 6 -9 7 -19 4 -22z m44 -61 c-5
-2 -7 -11 -4 -20 4 -12 2 -11 -8 3 -7 11 -13 30 -13 43 l-1 23 18 -23 c9 -13
13 -24 8 -26z"/>
<path d="M1524 891 c4 -6 3 -11 -3 -11 -5 0 -24 -19 -41 -42 l-32 -43 35 38
c37 41 57 50 33 15 -12 -17 -13 -25 -3 -37 9 -12 9 -13 0 -7 -7 4 -13 3 -13
-3 0 -5 8 -15 18 -20 10 -6 12 -11 4 -11 -7 0 -10 -4 -7 -10 8 -13 -5 -13 -25
0 -13 8 -12 10 4 10 15 0 16 3 6 15 -6 8 -8 20 -4 26 4 8 3 9 -4 5 -7 -4 -12
-14 -12 -22 0 -8 -4 -14 -10 -14 -5 0 -10 -4 -10 -8 0 -17 79 -44 131 -46 l53
-1 1 54 c0 50 -2 54 -24 58 -14 2 -27 6 -30 10 -3 3 4 3 17 0 12 -3 22 -2 22
2 0 15 -48 33 -69 26 -14 -4 -21 -2 -19 5 2 7 -3 15 -11 18 -8 3 -11 0 -7 -7z
m61 -31 c-11 -5 -16 -9 -12 -9 5 -1 5 -5 2 -11 -4 -6 -11 -5 -19 3 -12 10 -11
13 3 19 9 4 23 7 31 7 9 0 8 -4 -5 -9z m52 -82 c-3 -8 -6 -5 -6 6 -1 11 2 17
5 13 3 -3 4 -12 1 -19z m-20 -20 c-3 -8 -6 -5 -6 6 -1 11 2 17 5 13 3 -3 4
-12 1 -19z m-67 -8 c0 -5 -5 -10 -11 -10 -5 0 -7 5 -4 10 3 6 8 10 11 10 2 0
4 -4 4 -10z"/>
<path d="M1637 882 c-9 -2 -15 -8 -11 -13 3 -5 10 -7 15 -4 5 3 6 0 3 -8 -3
-8 1 -17 9 -20 8 -3 23 -26 32 -51 16 -42 19 -44 41 -34 30 14 31 31 2 23 -17
-5 -19 -4 -9 3 12 9 12 14 -2 34 -35 50 -63 74 -80 70z m38 -32 c3 -5 1 -10
-4 -10 -6 0 -11 5 -11 10 0 6 2 10 4 10 3 0 8 -4 11 -10z m25 -40 c6 -11 8
-20 6 -20 -3 0 -10 9 -16 20 -6 11 -8 20 -6 20 3 0 10 -9 16 -20z"/>
<path d="M2090 855 c-7 -20 -10 -39 -7 -41 3 -3 10 11 17 31 7 20 10 39 7 41
-3 3 -10 -11 -17 -31z"/>
<path d="M1390 830 c0 -5 5 -10 10 -10 6 0 10 5 10 10 0 6 -4 10 -10 10 -5 0
-10 -4 -10 -10z"/>
<path d="M1842 810 c-22 -29 -26 -48 -9 -42 5 1 6 -1 3 -6 -3 -5 1 -17 8 -27
13 -18 15 -17 39 11 31 34 32 42 11 72 -20 29 -26 28 -52 -8z m38 -20 c13 -8
11 -13 -10 -32 -22 -21 -22 -21 -6 -1 18 22 7 41 -16 27 -7 -4 -8 -3 -4 4 9
14 16 15 36 2z"/>
<path d="M2016 821 c13 -12 21 -15 26 -7 4 6 0 14 -10 18 -30 12 -36 8 -16
-11z"/>
<path d="M455 780 c10 -11 20 -20 23 -20 3 0 -3 9 -13 20 -10 11 -20 20 -23
20 -3 0 3 -9 13 -20z"/>
<path d="M2218 793 c7 -3 16 -2 19 1 4 3 -2 6 -13 5 -11 0 -14 -3 -6 -6z"/>
<path d="M2481 784 c0 -11 3 -14 6 -6 3 7 2 16 -1 19 -3 4 -6 -2 -5 -13z"/>
<path d="M1302 738 c5 -15 28 -23 28 -10 0 5 -7 13 -16 16 -10 4 -14 1 -12 -6z"/>
<path d="M1448 723 c39 -19 37 -28 -3 -13 -22 8 -33 7 -56 -8 l-29 -18 38 -22
c73 -40 212 -67 212 -39 0 6 6 24 14 38 l13 26 -56 6 c-32 2 -76 14 -99 26
-23 12 -47 21 -54 21 -7 0 2 -8 20 -17z m-18 -36 c-14 -8 -27 -12 -30 -10 -7
6 23 23 40 23 8 0 4 -6 -10 -13z m67 -1 c0 -8 -6 -12 -15 -9 -11 5 -11 7 0 14
7 5 13 9 14 9 0 0 1 -6 1 -14z m116 -13 c-7 -2 -19 -2 -25 0 -7 3 -2 5 12 5
14 0 19 -2 13 -5z m-3 -23 c0 -5 -2 -10 -4 -10 -3 0 -8 5 -11 10 -3 6 -1 10 4
10 6 0 11 -4 11 -10z m-45 -10 c8 -13 -5 -13 -25 0 -13 8 -13 10 2 10 9 0 20
-4 23 -10z"/>
<path d="M1736 722 c-24 -12 -27 -18 -22 -45 3 -17 8 -33 11 -35 2 -2 24 6 49
18 44 21 45 22 30 45 -20 31 -33 34 -68 17z m48 -11 c13 -14 14 -21 5 -27 -7
-4 -10 -3 -6 3 4 6 0 13 -8 16 -9 4 -12 1 -8 -9 3 -7 0 -14 -7 -14 -6 0 -8 -5
-4 -12 4 -7 3 -8 -5 -4 -6 4 -8 13 -4 19 8 12 9 17 12 37 2 14 6 13 25 -9z"/>
<path d="M1896 711 c-16 -17 -15 -20 3 -42 11 -13 20 -18 21 -11 0 6 -5 12
-11 12 -8 0 -8 5 1 15 10 12 10 15 0 15 -10 0 -10 3 0 15 18 22 6 19 -14 -4z"/>
<path d="M540 696 c0 -2 8 -10 18 -17 15 -13 16 -12 3 4 -13 16 -21 21 -21 13z"/>
<path d="M580 656 c0 -2 8 -10 18 -17 15 -13 16 -12 3 4 -13 16 -21 21 -21 13z"/>
<path d="M1333 640 c1 -21 12 -27 20 -10 3 6 4 5 3 -2 -2 -7 -9 -13 -17 -13
-8 0 -13 7 -11 15 3 11 1 12 -8 3 -7 -6 -9 -16 -5 -22 10 -18 115 -67 172 -81
45 -12 53 -11 67 3 15 15 15 17 -1 27 -16 10 -15 10 4 5 12 -3 24 -1 28 5 4 6
-7 10 -27 10 -18 0 -64 11 -103 24 -38 13 -74 22 -79 19 -5 -4 -6 -1 -2 5 3 6
-2 16 -13 21 -27 15 -30 14 -28 -9z m58 -39 c-9 -6 -10 -11 -2 -15 6 -4 15 -4
21 -1 5 3 17 2 26 -3 15 -8 15 -10 0 -15 -9 -4 -32 1 -50 11 -32 18 -33 19
-12 28 24 11 37 7 17 -5z m114 -42 c-17 -4 -22 -7 -11 -8 11 0 17 -4 14 -7 -3
-3 -21 -1 -39 5 -26 7 -28 9 -11 10 12 1 22 5 22 10 0 4 12 6 28 3 l27 -6 -30
-7z"/>
<path d="M1778 627 c-53 -27 -58 -33 -58 -63 l0 -33 41 14 c48 17 119 56 119
65 0 4 -10 16 -22 27 l-23 20 -57 -30z m72 0 c0 -8 -3 -8 -9 2 -5 8 -11 9 -15
3 -4 -6 1 -15 10 -20 15 -8 15 -10 0 -15 -11 -4 -15 -3 -10 4 4 7 0 9 -14 5
-11 -4 -23 -2 -27 3 -4 7 1 8 12 4 10 -3 15 -3 11 2 -9 9 23 36 34 29 5 -3 8
-11 8 -17z m-54 -52 c-11 -8 -22 -12 -25 -9 -6 6 19 24 34 24 6 -1 1 -7 -9
-15z m-41 -23 c-3 -3 -11 0 -18 7 -9 10 -8 11 6 5 10 -3 15 -9 12 -12z"/>
<path d="M548 613 c6 -2 18 -2 25 0 6 3 1 5 -13 5 -14 0 -19 -2 -12 -5z"/>
<path d="M2011 534 c0 -11 3 -14 6 -6 3 7 2 16 -1 19 -3 4 -6 -2 -5 -13z"/>
<path d="M2585 390 c-13 -15 -16 -23 -8 -28 7 -4 16 -20 22 -35 6 -15 17 -27
26 -27 8 0 33 -11 55 -25 83 -52 80 -27 -8 65 l-67 72 -20 -22z"/>
<path d="M1866 337 l-60 -32 84 -3 c99 -3 110 0 110 32 0 18 -5 24 -22 23 -13
0 -30 2 -38 5 -8 4 -42 -8 -74 -25z"/>
<path d="M3248 353 c-22 -3 -27 -9 -26 -29 2 -23 4 -24 91 -24 56 0 86 4 82
10 -3 6 -12 10 -18 10 -7 0 -30 9 -52 20 -22 11 -42 19 -45 19 -3 -1 -17 -4
-32 -6z"/>
<path d="M2953 343 c-16 -3 -23 -11 -23 -29 0 -24 1 -24 91 -24 57 0 88 4 84
10 -3 6 -12 10 -18 10 -7 0 -30 9 -52 20 -22 11 -44 19 -50 19 -5 -1 -20 -4
-32 -6z"/>
<path d="M2630 280 c0 -5 5 -10 11 -10 5 0 7 5 4 10 -3 6 -8 10 -11 10 -2 0
-4 -4 -4 -10z"/>
<path d="M2688 203 c7 -3 16 -2 19 1 4 3 -2 6 -13 5 -11 0 -14 -3 -6 -6z"/>
<path d="M3083 203 c9 -2 23 -2 30 0 6 3 -1 5 -18 5 -16 0 -22 -2 -12 -5z"/>
</g>
</svg>
